<?xml version="1.0" encoding="UTF-8" standalone="no"?>
<svg
   xmlns:dc="http://purl.org/dc/elements/1.1/"
   xmlns:cc="http://creativecommons.org/ns#"
   xmlns:rdf="http://www.w3.org/1999/02/22-rdf-syntax-ns#"
   xmlns:svg="http://www.w3.org/2000/svg"
   xmlns="http://www.w3.org/2000/svg"
   xmlns:sodipodi="http://sodipodi.sourceforge.net/DTD/sodipodi-0.dtd"
   xmlns:inkscape="http://www.inkscape.org/namespaces/inkscape"
   height="1000"
   width="875"
   id="svg2"
   version="1.1"
   inkscape:version="0.91 r13725"
   sodipodi:docname="drupal.svg">
  <metadata
     id="metadata10">
    <rdf:RDF>
      <cc:Work
         rdf:about="">
        <dc:format>image/svg+xml</dc:format>
        <dc:type
           rdf:resource="http://purl.org/dc/dcmitype/StillImage" />
        <dc:title></dc:title>
      </cc:Work>
    </rdf:RDF>
  </metadata>
  <defs
     id="defs8" />
  <sodipodi:namedview
     pagecolor="#ffffff"
     bordercolor="#666666"
     borderopacity="1"
     objecttolerance="10"
     gridtolerance="10"
     guidetolerance="10"
     inkscape:pageopacity="0"
     inkscape:pageshadow="2"
     inkscape:window-width="1339"
     inkscape:window-height="936"
     id="namedview6"
     showgrid="false"
     inkscape:zoom="0.472"
     inkscape:cx="202.00492"
     inkscape:cy="631.74343"
     inkscape:window-x="0"
     inkscape:window-y="0"
     inkscape:window-maximized="0"
     inkscape:current-layer="svg2" />
  <path
     d="M -23.304688 -14.830078 L -23.304688 1033.8984 L 908.89844 1033.8984 L 908.89844 -14.830078 L -23.304688 -14.830078 z M 402 0 C 450.66667 58.666667 486 95.333333 508 110 C 524.66667 121.33333 549.16667 134.33333 581.5 149 C 613.83333 163.66667 638.33333 176 655 186 C 667.66667 193.33333 679.66667 201.16667 691 209.5 C 702.33333 217.83333 720.33333 234 745 258 C 769.66667 282 790.5 307.33333 807.5 334 C 824.5 360.66667 840 395.66667 854 439 C 868 482.33333 875 528 875 576 C 875 700 832.5 801.66667 747.5 881 C 662.5 960.33333 560.33333 1000 441 1000 C 363.66667 1000 291.5 981.5 224.5 944.5 C 157.5 907.5 103.33333 855.66667 62 789 C 20.666667 722.33333 0 648.66667 0 568 C 0 521.33333 7 477 21 435 C 35 393 51.166667 358.66667 69.5 332 C 87.833333 305.33333 109.33333 280.5 134 257.5 C 158.66667 234.5 177.66667 218.5 191 209.5 C 204.33333 200.5 217 192.66667 229 186 C 235.66667 182.66667 245.5 177.66667 258.5 171 C 271.5 164.33333 281.66667 159 289 155 C 296.33333 151 305.83333 145.33333 317.5 138 C 329.16667 130.66667 340.66667 122.33333 352 113 C 380 90.333333 396.66667 52.666667 402 0 z M 349 572 C 305.66667 572.66667 268.5 587.66667 237.5 617 C 206.5 646.33333 190.66667 680.33333 190 719 C 188.66667 761 202.66667 792 232 812 C 252.66667 826 284 833 326 833 C 353.33333 833 385.83333 823.16667 423.5 803.5 C 461.16667 783.83333 496.16667 764.33333 528.5 745 C 560.83333 725.66667 584.33333 716.33333 599 717 C 614.33333 717.66667 640.16667 736.33333 676.5 773 C 712.83333 809.66667 736.33333 828.33333 747 829 C 760.33333 829.66667 771.5 826.83333 780.5 820.5 C 789.5 814.16667 800 802.33333 812 785 C 834 752.33333 845 713.33333 845 668 C 845 648.66667 840 630.5 830 613.5 C 820 596.5 804.33333 588 783 588 C 768.33333 588 737.66667 603.66667 691 635 C 644.33333 666.33333 613 682.33333 597 683 C 582.33333 683 562 673.83333 536 655.5 C 510 637.16667 480.5 618.66667 447.5 600 C 414.5 581.33333 381.66667 572 349 572 z M 577 784 C 559.66667 784 546 786 536 790 C 524.66667 794.66667 510 805.33333 492 822 C 482 830 479.66667 838.33333 485 847 C 489.66667 852.33333 499 848.66667 513 836 C 514.33333 835.33333 517 833.33333 521 830 C 525 826.66667 527.66667 824.5 529 823.5 C 530.33333 822.5 533 820.83333 537 818.5 C 541 816.16667 544.33333 814.66667 547 814 C 549.66667 813.33333 553.5 812.66667 558.5 812 C 563.5 811.33333 568.66667 811 574 811 C 584.66667 811 593.33333 812.5 600 815.5 C 606.66667 818.5 610.83333 821.16667 612.5 823.5 C 614.16667 825.83333 616.66667 830 620 836 C 623.33333 842.66667 625.83333 846.5 627.5 847.5 C 629.16667 848.5 631.66667 848.33333 635 847 C 643 842.33333 645.33333 835.66667 642 827 C 636 809.66667 628.66667 798.33333 620 793 C 612 787 597.66667 784 577 784 z M 659.09375 886.14453 C 656.90625 886.08984 654.20833 887.375 651 890 C 623.66667 911.33333 582.33333 922 527 922 C 477 922 440.33333 912.66667 417 894 C 415 892.66667 412.33333 892 409 892 C 405.66667 892 401 894.33333 395 899 C 387 905.66667 387 912.33333 395 919 C 425.66667 947 480.66667 957.33333 560 950 C 575.33333 948.66667 591.16667 944.83333 607.5 938.5 C 623.83333 932.16667 636.16667 926.33333 644.5 921 C 652.83333 915.66667 658.33333 911.66667 661 909 C 663.66667 906.33333 665 901 665 893 C 663.875 888.5 661.90625 886.21484 659.09375 886.14453 z "
     id="path4" />
</svg>
