<?xml version="1.0" encoding="UTF-8" standalone="no"?>
<svg
   xmlns:sketch="http://www.bohemiancoding.com/sketch/ns"
   xmlns:dc="http://purl.org/dc/elements/1.1/"
   xmlns:cc="http://creativecommons.org/ns#"
   xmlns:rdf="http://www.w3.org/1999/02/22-rdf-syntax-ns#"
   xmlns:svg="http://www.w3.org/2000/svg"
   xmlns="http://www.w3.org/2000/svg"
   xmlns:xlink="http://www.w3.org/1999/xlink"
   xmlns:sodipodi="http://sodipodi.sourceforge.net/DTD/sodipodi-0.dtd"
   xmlns:inkscape="http://www.inkscape.org/namespaces/inkscape"
   width="80px"
   height="38px"
   viewBox="0 0 38 80"
   version="1.1"
   id="svg3452"
   inkscape:version="0.91 r13725"
   sodipodi:docname="pantheon-logo-symbol.svg">
  <metadata
     id="metadata3481">
    <rdf:RDF>
      <cc:Work
         rdf:about="">
        <dc:format>image/svg+xml</dc:format>
        <dc:type
           rdf:resource="http://purl.org/dc/dcmitype/StillImage" />
        <dc:title>pantheon-logo-symbol</dc:title>
      </cc:Work>
    </rdf:RDF>
  </metadata>
  <sodipodi:namedview
     pagecolor="#ffffff"
     bordercolor="#666666"
     borderopacity="1"
     objecttolerance="10"
     gridtolerance="10"
     guidetolerance="10"
     inkscape:pageopacity="0"
     inkscape:pageshadow="2"
     inkscape:window-width="1279"
     inkscape:window-height="843"
     id="namedview3479"
     showgrid="false"
     inkscape:zoom="0.5"
     inkscape:cx="24.423729"
     inkscape:cy="40"
     inkscape:window-x="43"
     inkscape:window-y="696"
     inkscape:window-maximized="0"
     inkscape:current-layer="svg3452" />
  <!-- Generator: Sketch 3.4.4 (17249) - http://www.bohemiancoding.com/sketch -->
  <title
     id="title3454">pantheon-logo-symbol</title>
  <desc
     id="desc3456">Created with Sketch.</desc>
  <defs
     id="defs3458">
    <path
       id="path-1"
       d="M0,0.536231884 L37.9484058,0.536231884 L37.9484058,80 L0,80 L0,0.536231884 Z" />
  </defs>
  <g
     id="g3483"
     transform="matrix(0,-2.1081255,2.1194713,0,-61.62566,78.216016)">
    <g
       sketch:type="MSPage"
       id="New-Page"
       style="fill:none;fill-rule:evenodd;stroke:none;stroke-width:1">
      <g
         sketch:type="MSLayerGroup"
         id="Pantheon-Fist-Copy">
        <path
           sketch:type="MSShapeGroup"
           id="Fill-1"
           d="m 3.2707826,0.536 7.3026084,17.121739 -9.2939127,0 3.0736231,7.536232 18.8347826,0 L 3.2707826,0.536 Z"
           inkscape:connector-curvature="0"
           style="fill:#efd01b" />
        <path
           sketch:type="MSShapeGroup"
           id="Fill-2"
           d="m 10.597044,40.846087 6.151304,14.492754 -10.9513045,0 20.2481155,24.660869 -7.301449,-17.124058 9.292754,0 -3.108986,-7.536811 -4.311304,0 -6.156522,-14.492754 -3.862608,0 z"
           inkscape:connector-curvature="0"
           style="fill:#efd01b" />
        <g
           id="Group-20">
          <path
             sketch:type="MSShapeGroup"
             id="Fill-3"
             d="m 30.544174,32.734319 c 0.228406,0 0.76,-0.284058 0.76,-2.902609 0,-2.615652 -0.531594,-2.898551 -0.76,-2.898551 l -12.973913,0 2.462029,5.80116 10.511884,0 z"
             inkscape:connector-curvature="0"
             style="fill:#ffffff" />
          <path
             sketch:type="MSShapeGroup"
             id="Fill-5"
             d="m 22.985391,39.690841 8.716522,-0.0012 c 0.231304,0 0.761739,-0.284058 0.761739,-2.901449 0,-2.616812 -0.530435,-2.89971 -0.761739,-2.89971 l -11.17913,0.0012 2.462608,5.80116 z"
             inkscape:connector-curvature="0"
             style="fill:#ffffff" />
          <path
             sketch:type="MSShapeGroup"
             id="Fill-7"
             d="m 30.544174,47.802841 -11.722319,0 2.461449,5.8 9.26087,0 c 0.228406,0 0.76,-0.28174 0.76,-2.898551 0,-2.617391 -0.531594,-2.901449 -0.76,-2.901449"
             inkscape:connector-curvature="0"
             style="fill:#ffffff" />
          <path
             sketch:type="MSShapeGroup"
             id="Fill-9"
             d="m 31.702203,40.846319 -15.833623,0 2.462608,5.801159 13.371015,0 c 0.230725,0 0.761739,-0.284058 0.761739,-2.89971 0,-2.617391 -0.531014,-2.901449 -0.761739,-2.901449"
             inkscape:connector-curvature="0"
             style="fill:#ffffff" />
          <path
             sketch:type="MSShapeGroup"
             id="Fill-11"
             d="m 30.544174,47.802841 -11.722319,0 2.461449,5.8 9.26087,0 c 0.228406,0 0.76,-0.28174 0.76,-2.898551 0,-2.617391 -0.531594,-2.901449 -0.76,-2.901449"
             inkscape:connector-curvature="0"
             style="fill:#ffffff" />
          <path
             sketch:type="MSShapeGroup"
             id="Fill-13"
             d="m 31.702203,40.846319 -15.833623,0 2.462608,5.801159 13.371015,0 c 0.230725,0 0.761739,-0.284058 0.761739,-2.89971 0,-2.617391 -0.531014,-2.901449 -0.761739,-2.901449"
             inkscape:connector-curvature="0"
             style="fill:#ffffff" />
          <g
             id="Group-17">
            <mask
               fill="white"
               sketch:name="Clip 16"
               id="mask-2">
              <use
                 id="use3474"
                 xlink:href="#path-1"
                 x="0"
                 y="0"
                 width="100%"
                 height="100%" />
            </mask>
            <g
               id="Clip-16" />
            <path
               mask="url(#mask-2)"
               sketch:type="MSShapeGroup"
               id="Fill-15"
               d="m 13.968,39.688464 -2.953623,-6.958261 1.409275,0 2.953623,6.95884 6.270145,0.0017 -5.415652,-12.757682 -13.5211593,0 c -1.0417391,0 -1.6139131,0 -2.08289856,1.509566 -0.56289855,1.801739 -0.62782608203,5.203478 -0.62782608203,11.823768 0,6.62029 0.064927532,10.022029 0.62782608203,11.823768 0.46898546,1.509565 1.04115946,1.509565 2.08289856,1.509565 l 11.8620293,0.0017 -5.8771018,-13.914782 5.2724638,0.0017 z"
               inkscape:connector-curvature="0"
               style="fill:#ffffff" />
          </g>
          <path
             sketch:type="MSShapeGroup"
             id="Fill-18"
             d="m 35.114667,51.706841 0.369855,0 c 0.07768,0 0.155362,-0.0029 0.233043,-0.0099 0.07768,-0.0058 0.147826,-0.02261 0.211015,-0.04869 0.06261,-0.02609 0.113623,-0.06435 0.152463,-0.116522 0.03884,-0.05217 0.05797,-0.123478 0.05797,-0.213913 0,-0.09043 -0.01913,-0.161739 -0.05797,-0.213913 -0.03884,-0.05217 -0.08986,-0.09044 -0.152463,-0.116522 -0.06319,-0.02609 -0.133334,-0.04116 -0.211015,-0.04522 -0.07768,-0.0046 -0.155362,-0.007 -0.233043,-0.007 l -0.369855,0 0,0.771595 z m -0.506087,-1.199421 1.063768,0 c 0.332753,0 0.577971,0.0713 0.735652,0.213913 0.158261,0.142609 0.237101,0.347826 0.237101,0.615652 0,0.242319 -0.06203,0.424348 -0.186086,0.545508 -0.124638,0.121159 -0.28058,0.192463 -0.468986,0.213913 l 0.713623,1.167536 -0.532174,0 -0.686956,-1.129275 -0.369855,0 0,1.129275 -0.506087,0 0,-2.756522 z m -1.056812,1.394203 c 0,0.272464 0.05217,0.529855 0.155362,0.771594 0.103769,0.242319 0.245797,0.452754 0.424928,0.632464 0.17971,0.179131 0.390145,0.32116 0.632464,0.424348 0.241739,0.104348 0.49913,0.155942 0.771594,0.155942 0.272464,0 0.529855,-0.05159 0.771594,-0.155942 0.242319,-0.103188 0.452754,-0.245217 0.632464,-0.424348 0.17913,-0.17971 0.321159,-0.390145 0.424348,-0.632464 0.104348,-0.241739 0.155942,-0.49913 0.155942,-0.771594 0,-0.272464 -0.05159,-0.529275 -0.155942,-0.771594 -0.103189,-0.242319 -0.245218,-0.452754 -0.424348,-0.632464 -0.17971,-0.17971 -0.390145,-0.321159 -0.632464,-0.424348 -0.241739,-0.104347 -0.49913,-0.155942 -0.771594,-0.155942 -0.272464,0 -0.529855,0.0516 -0.771594,0.155942 -0.242319,0.103189 -0.452754,0.244638 -0.632464,0.424348 -0.179131,0.17971 -0.321159,0.390145 -0.424928,0.632464 -0.103188,0.242319 -0.155362,0.49913 -0.155362,0.771594 l 0,0 z m -0.428406,0 c 0,-0.332753 0.06435,-0.645217 0.191884,-0.936811 0.127537,-0.292174 0.30029,-0.547247 0.518841,-0.765798 0.217971,-0.217971 0.473043,-0.390724 0.764638,-0.51826 0.292174,-0.127537 0.604637,-0.191305 0.937391,-0.191305 0.332754,0 0.645217,0.06377 0.936811,0.191305 0.292174,0.127536 0.547247,0.300289 0.765798,0.51826 0.217971,0.218551 0.390724,0.473624 0.51826,0.765798 0.127537,0.291594 0.191305,0.604058 0.191305,0.936811 0,0.332754 -0.06377,0.645218 -0.191305,0.936812 -0.127536,0.292174 -0.300289,0.547246 -0.51826,0.765217 -0.218551,0.218551 -0.473624,0.391304 -0.765798,0.518841 -0.291594,0.127536 -0.604057,0.191304 -0.936811,0.191304 -0.332754,0 -0.645217,-0.06377 -0.937391,-0.191304 -0.291595,-0.127537 -0.546667,-0.30029 -0.764638,-0.518841 -0.218551,-0.217971 -0.391304,-0.473043 -0.518841,-0.765217 -0.127536,-0.291594 -0.191884,-0.604058 -0.191884,-0.936812 l 0,0 z"
             inkscape:connector-curvature="0"
             style="fill:#ffffff" />
        </g>
      </g>
    </g>
  </g>
</svg>
